<?xml version="1.0" encoding="UTF-8"?>
<svg version="1.1" xmlns="http://www.w3.org/2000/svg" width="478" height="478">
<path d="M0 0 C14.76474301 14.45585717 27.00743419 31.25507813 37.11328125 49.2421875 C37.51401855 49.94794922 37.91475586 50.65371094 38.32763672 51.38085938 C69.33182245 106.44022552 76.04132663 172.21197384 59.32421875 232.90234375 C55.38148992 246.57080393 50.46139467 259.51737727 44.11328125 272.2421875 C43.70287598 273.0686377 43.2924707 273.89508789 42.86962891 274.74658203 C37.88951794 284.68570992 32.62704413 294.21524052 26.11328125 303.2421875 C25.4171875 304.2115625 24.72109375 305.1809375 24.00390625 306.1796875 C9.3918311 326.07698132 -7.71303788 344.8736787 -27.88671875 359.2421875 C-28.5096582 359.69352051 -29.13259766 360.14485352 -29.77441406 360.60986328 C-39.41139013 367.56564188 -49.34728237 373.75142803 -59.88671875 379.2421875 C-60.65016602 379.6429248 -61.41361328 380.04366211 -62.20019531 380.45654297 C-118.14319643 409.44683554 -183.89742326 413.87669275 -243.8359375 395.28833008 C-270.88649452 386.53429791 -296.90269716 373.38910296 -318.88671875 355.2421875 C-319.86898437 354.46230469 -320.85125 353.68242187 -321.86328125 352.87890625 C-337.12341066 340.45831991 -351.4564917 326.29046056 -362.88671875 310.2421875 C-363.56371826 309.30777832 -363.56371826 309.30777832 -364.25439453 308.35449219 C-371.21017313 298.71751612 -377.39595928 288.78162388 -382.88671875 278.2421875 C-383.28745605 277.47874023 -383.68819336 276.71529297 -384.10107422 275.92871094 C-397.41573829 250.23520455 -405.74286406 222.01211352 -408.88671875 193.2421875 C-408.99757813 192.29988281 -409.1084375 191.35757812 -409.22265625 190.38671875 C-415.41773141 127.01277425 -395.25854212 64.03625743 -355.21875 14.94921875 C-344.01221358 1.44518843 -331.74772123 -11.03964191 -317.61230469 -21.47216797 C-315.88226471 -22.76113097 -314.18445006 -24.08484811 -312.48828125 -25.41796875 C-235.62221314 -84.96740482 -121.01453536 -86.49388095 0 0 Z " fill="#EA6D2E" transform="translate(409.88671875,71.7578125)"/>
<path d="M0 0 C0.34611328 1.52753906 0.34611328 1.52753906 0.69921875 3.0859375 C2.6650545 11.65194916 4.79328633 20.14156674 7.2487793 28.58154297 C8.35932387 32.45428041 9.29572572 36.31501469 10.07177734 40.26977539 C10.24703949 41.15895157 10.42230164 42.04812775 10.60287476 42.96424866 C10.79945175 43.97194557 10.79945175 43.97194557 11 45 C1.18912275 47.50638302 -8.62360032 50.00548121 -18.4375 52.5 C-19.19775105 52.69324608 -19.95800209 52.88649216 -20.74129105 53.08559418 C-66.10573284 64.61295205 -111.55747375 75.78439778 -157 87 C-99.91 87.33 -42.82 87.66 16 88 C16.061875 108.604375 16.12375 129.20875 16.1875 150.4375 C16.21481201 156.9336499 16.24212402 163.4297998 16.27026367 170.12280273 C16.28381348 178.0802002 16.28381348 178.0802002 16.28633118 181.81019592 C16.29092595 184.40497743 16.30031877 186.99931473 16.31672668 189.5940094 C16.34130439 193.53332783 16.34171576 197.47246697 16.34057617 201.41186523 C16.3513705 202.55989593 16.36216482 203.70792662 16.37328625 204.89074612 C16.32495626 217.40874341 12.24845767 226.29341152 4 235.625 C-4.30814792 243.58000517 -15.28356485 247.10446263 -26.55641174 247.14717102 C-27.85848068 247.15432632 -29.16054962 247.16148163 -30.5020752 247.16885376 C-31.93310523 247.17169356 -33.36413552 247.17440534 -34.79516602 247.17700195 C-36.31188612 247.18327299 -37.82860471 247.18992035 -39.34532166 247.19691467 C-44.31483912 247.21788516 -49.28435663 247.22831198 -54.25390625 247.23828125 C-55.9704229 247.24233173 -57.6869394 247.24644874 -59.40345573 247.25063133 C-67.47176554 247.26966932 -75.54006628 247.28390204 -83.60839421 247.2922433 C-92.89444499 247.30200423 -102.18025669 247.32829963 -111.4662233 247.36874419 C-118.66139434 247.39899727 -125.85649721 247.41372094 -133.05173057 247.41702431 C-137.34070752 247.41936471 -141.62942866 247.42819223 -145.91833687 247.45348549 C-149.95925986 247.47693226 -153.9997616 247.48093359 -158.04073524 247.47072411 C-159.51400919 247.47023261 -160.98730507 247.47643751 -162.46051407 247.49028015 C-177.3935481 247.62260781 -189.52395667 244.64555864 -200.73828125 234.4140625 C-207.7381983 226.99812971 -212.1250627 217.11116445 -212.12457275 206.93295288 C-212.12713577 205.93542496 -212.12969879 204.93789703 -212.13233948 203.91014099 C-212.13023972 202.82652786 -212.12813995 201.74291473 -212.12597656 200.62646484 C-212.1278447 199.47607224 -212.12971283 198.32567963 -212.13163757 197.14042664 C-212.13564005 194.64141438 -212.13771627 192.14239846 -212.13809967 189.64338303 C-212.14064979 185.67233914 -212.15213735 181.70138598 -212.16766357 177.7303772 C-212.17023643 177.0577265 -212.17280928 176.38507581 -212.1754601 175.69204175 C-212.18072695 174.31639219 -212.18601243 172.9407427 -212.19131613 171.56509328 C-212.22626558 162.32853808 -212.25299515 153.0920957 -212.25048828 143.85546875 C-212.24888593 137.6159471 -212.26525801 131.37673885 -212.30119491 125.1373173 C-212.3194445 121.84626986 -212.32638464 118.55585085 -212.31671906 115.26475143 C-212.27867547 100.86366121 -212.8188613 87.72156523 -217.35511017 73.97490311 C-218.43223558 70.6763268 -219.35886559 67.33612104 -220.3125 64 C-220.80169922 62.3603125 -220.80169922 62.3603125 -221.30078125 60.6875 C-222 58 -222 58 -222 55 C-212.00082465 52.4550851 -202.00071902 49.91384108 -192 47.375 C-191.22335495 47.1778326 -190.4467099 46.98066521 -189.64653015 46.77752304 C-159.99081419 39.2500028 -130.31300545 31.81251817 -100.62585449 24.41003418 C-81.88595734 19.73714362 -63.14859222 15.05666658 -44.4375 10.26953125 C-43.01715171 9.90645529 -41.5968026 9.54338252 -40.17645264 9.18031311 C-33.73319447 7.53243188 -27.29171734 5.87788184 -20.85253906 4.21411133 C-18.63609585 3.64523541 -16.41962631 3.07646204 -14.203125 2.5078125 C-12.71776245 2.12052727 -12.71776245 2.12052727 -11.20239258 1.72541809 C-10.30190186 1.49521469 -9.40141113 1.26501129 -8.47363281 1.02783203 C-7.31290253 0.72765671 -7.31290253 0.72765671 -6.12872314 0.42141724 C-4 0 -4 0 0 0 Z " fill="#FEFCFB" transform="translate(336,107)"/>
<path d="M0 0 C68.31 0 136.62 0 207 0 C207 84.05499531 207 84.05499531 197.29296875 94.08984375 C190.96598234 99.36053601 183.92115287 102.11658 175.74620056 102.14717102 C173.78015869 102.15790398 173.78015869 102.15790398 171.7743988 102.16885376 C170.31826806 102.17169406 168.86213706 102.17440579 167.40600586 102.17700195 C165.8750086 102.18326744 164.34401287 102.18991432 162.8130188 102.19691467 C157.78030455 102.21795412 152.74759001 102.2283196 147.71484375 102.23828125 C145.98062181 102.24232939 144.24640003 102.24644633 142.51217842 102.25063133 C134.36110443 102.2696858 126.21003949 102.28391411 118.0589475 102.2922433 C108.66133688 102.30200541 99.26396244 102.32829693 89.86643499 102.36874419 C82.59663731 102.39895534 75.32690712 102.41371706 68.0570479 102.41702431 C63.71838023 102.41936987 59.37996479 102.42826501 55.04136467 102.45348549 C50.95452855 102.47685774 46.86810907 102.48096298 42.7812233 102.47072411 C41.28734128 102.47023079 39.79343813 102.47649072 38.29961967 102.49028015 C26.67771143 102.59149268 17.43160544 101.12624514 8.75390625 92.921875 C-12.52884226 69.60091227 0 21.08083059 0 0 Z " fill="#EC722C" transform="translate(135,241)"/>
<path d="M0 0 C4.18726596 0.83745319 6.18992269 1.45166855 9.7109375 3.484375 C10.61553711 4.00153076 11.52013672 4.51868652 12.45214844 5.05151367 C13.41668945 5.61201416 14.38123047 6.17251465 15.375 6.75 C17.42954498 7.92863389 19.48423702 9.10701146 21.5390625 10.28515625 C22.59770508 10.89504395 23.65634766 11.50493164 24.74707031 12.13330078 C31.04950422 15.74996317 37.39084279 19.29807747 43.72412109 22.86035156 C44.63500488 23.37436523 45.54588867 23.88837891 46.484375 24.41796875 C47.28584961 24.86938232 48.08732422 25.3207959 48.91308594 25.78588867 C50.64678409 26.79450834 52.33111723 27.88741148 54 29 C53.77001953 30.82641602 53.77001953 30.82641602 53 33 C51.14013672 34.44116211 51.14013672 34.44116211 48.6796875 35.77734375 C47.76219727 36.28483154 46.84470703 36.79231934 45.89941406 37.31518555 C44.4023291 38.1182312 44.4023291 38.1182312 42.875 38.9375 C40.78366476 40.0881975 38.69252483 41.23925002 36.6015625 42.390625 C35.5177832 42.98166016 34.43400391 43.57269531 33.31738281 44.18164062 C27.93298827 47.1329926 22.59280874 50.16173002 17.25 53.1875 C15.77829346 54.01592407 15.77829346 54.01592407 14.27685547 54.86108398 C13.36564941 55.37485596 12.45444336 55.88862793 11.515625 56.41796875 C10.71415039 56.86938232 9.91267578 57.3207959 9.08691406 57.78588867 C7.35321591 58.79450834 5.66888277 59.88741148 4 61 C2.68 61 1.36 61 0 61 C0 40.87 0 20.74 0 0 Z " fill="#FEFDFD" transform="translate(218,262)"/>
<path d="M0 0 C19.32132451 -1.6200801 19.32132451 -1.6200801 24.92578125 1.76953125 C26.97760004 4.39908784 28.45934814 7.04239825 30 10 C31.20807529 11.7799752 32.46860092 13.51495338 33.7331543 15.25512695 C39 22.50934669 39 22.50934669 39 25 C20.74173694 27.69292321 20.74173694 27.69292321 14.86083984 23.46044922 C11.2196086 19.52580691 8.62767032 15.00063412 6.18310547 10.25390625 C4.32355088 6.71131278 2.15992837 3.36510995 0 0 Z " fill="#E8663C" transform="translate(270,206)"/>
<path d="M0 0 C19.32132451 -1.6200801 19.32132451 -1.6200801 24.92578125 1.76953125 C26.97760004 4.39908784 28.45934814 7.04239825 30 10 C31.20807529 11.7799752 32.46860092 13.51495338 33.7331543 15.25512695 C39 22.50934669 39 22.50934669 39 25 C31.74608999 26.2809132 24.11326976 27.34306383 17 25 C11.24474469 20.42451862 7.67987083 13.81610223 4.27661133 7.40356445 C2.9359253 4.87936213 1.48738476 2.44009227 0 0 Z " fill="#ED792A" transform="translate(168,206)"/>
<path d="M0 0 C19.32132451 -1.6200801 19.32132451 -1.6200801 24.92578125 1.76953125 C26.97760004 4.39908784 28.45934814 7.04239825 30 10 C31.20807529 11.7799752 32.46860092 13.51495338 33.7331543 15.25512695 C39 22.50934669 39 22.50934669 39 25 C35.62590441 25.20453151 32.25341008 25.32801449 28.875 25.4375 C27.92367187 25.49615234 26.97234375 25.55480469 25.9921875 25.61523438 C19.0996365 25.78276166 19.0996365 25.78276166 16.20556641 23.72265625 C14.61007236 21.90342626 13.3113278 20.03314878 12 18 C10.93221669 16.54241465 9.86182631 15.08673618 8.7890625 13.6328125 C7.73069164 12.13280046 6.67602342 10.63016935 5.625 9.125 C5.07972656 8.35414063 4.53445312 7.58328125 3.97265625 6.7890625 C0 1.13375235 0 1.13375235 0 0 Z " fill="#EB6F33" transform="translate(219,206)"/>
<path d="M0 0 C2.44612818 1.730391 4.65350575 3.680445 6.875 5.6875 C7.46152344 6.20505859 8.04804688 6.72261719 8.65234375 7.25585938 C9.83469842 8.29918992 11.014083 9.34589626 12.19042969 10.39599609 C15.09367089 12.96943035 18.04625258 15.48486662 21 18 C18.4160336 20.5839664 16.4227544 20.81008658 12.875 21.625 C11.23144531 22.01558594 11.23144531 22.01558594 9.5546875 22.4140625 C-0.47366051 24.0670869 -0.47366051 24.0670869 -5.08984375 20.83984375 C-6.05754321 19.89088144 -7.00642096 18.92241803 -7.9375 17.9375 C-8.95959096 16.92700145 -9.98435414 15.91919891 -11.01171875 14.9140625 C-11.51106934 14.4180957 -12.01041992 13.92212891 -12.52490234 13.41113281 C-15.76732942 10.3093075 -19.39778037 7.66527866 -23 5 C-20.19232924 2.19232924 -16.93224584 1.73618174 -13.1875 0.8125 C-12.47529297 0.62236328 -11.76308594 0.43222656 -11.02929688 0.23632812 C-3.88222468 -1.55539858 -3.88222468 -1.55539858 0 0 Z " fill="#E7633F" transform="translate(281,133)"/>
<path d="M0 0 C2.0469459 1.70671783 3.96162044 3.40749771 5.875 5.25 C6.92889926 6.24172375 7.98358332 7.23261417 9.0390625 8.22265625 C9.54469727 8.69977051 10.05033203 9.17688477 10.57128906 9.66845703 C13.29856262 12.21024616 16.14734974 14.60118046 19 17 C18.67 17.66 18.34 18.32 18 19 C15.4315763 19.83836667 12.92992992 20.54531392 10.3125 21.1875 C9.60416016 21.37763672 8.89582031 21.56777344 8.16601562 21.76367188 C3.82315305 22.85039003 0.3534859 23.46885906 -4 22 C-6.36280406 20.2917938 -8.38504402 18.31474613 -10.4375 16.25 C-13.78124019 12.95869482 -17.03076083 9.8928588 -20.91015625 7.234375 C-21.92980469 6.49703125 -22.94945312 5.7596875 -24 5 C-24 4.34 -24 3.68 -24 3 C-20.94445962 2.09933478 -17.87994734 1.23415374 -14.8125 0.375 C-13.94818359 0.11976563 -13.08386719 -0.13546875 -12.19335938 -0.3984375 C-4.041058 -2.64734822 -4.041058 -2.64734822 0 0 Z " fill="#EA6C35" transform="translate(233,146)"/>
<path d="M0 0 C2.11118613 1.63056694 3.88432006 3.18861593 5.75 5.0625 C6.79934128 6.07576406 7.85144854 7.08617119 8.90625 8.09375 C9.42445313 8.59003906 9.94265625 9.08632812 10.4765625 9.59765625 C13.28865211 12.18622079 16.36277744 14.41910634 19.453125 16.66015625 C19.96359375 17.10230469 20.4740625 17.54445312 21 18 C21 18.66 21 19.32 21 20 C18.64856824 20.67789024 16.29461376 21.34240747 13.9375 22 C13.28072266 22.19078125 12.62394531 22.3815625 11.94726562 22.578125 C7.54087838 23.7936801 3.59181449 24.63586988 -1 24 C-3.63550965 22.43630603 -5.77797197 20.47303093 -8 18.375 C-8.5775 17.85292969 -9.155 17.33085937 -9.75 16.79296875 C-10.91312473 15.74148323 -12.07074332 14.68387352 -13.22265625 13.62011719 C-16.08724121 11.00893782 -19.0423919 8.50475245 -22 6 C-21.67 5.34 -21.34 4.68 -21 4 C-18.41216145 3.19056192 -15.88226179 2.5006256 -13.25 1.875 C-12.53328125 1.69324219 -11.8165625 1.51148438 -11.078125 1.32421875 C-3.22297391 -0.59625017 -3.22297391 -0.59625017 0 0 Z " fill="#EC762B" transform="translate(182,157)"/>
<path d="M0 0 C5.62571308 1.12514262 5.62571308 1.12514262 7.97265625 4.38671875 C8.73352539 5.4240918 8.73352539 5.4240918 9.50976562 6.48242188 C10.02216797 7.21009766 10.53457031 7.93777344 11.0625 8.6875 C11.8369043 9.75000977 11.8369043 9.75000977 12.62695312 10.83398438 C14.10632239 12.8749486 15.55822954 14.93235262 17 17 C17.41620605 17.58990723 17.83241211 18.17981445 18.26123047 18.78759766 C21 22.75296964 21 22.75296964 21 25 C14.07 25 7.14 25 0 25 C0 16.75 0 8.5 0 0 Z " fill="#F08325" transform="translate(135,206)"/>
<path d="M0 0 C5.4481638 0.12174668 8.63545754 3.78532721 12.4375 7.25 C13.72744813 8.40150836 15.01780754 9.55255617 16.30859375 10.703125 C16.92589355 11.25806641 17.54319336 11.81300781 18.17919922 12.38476562 C20.73602096 14.652925 23.36012616 16.8293464 26 19 C22.69504523 21.20330318 19.87667528 22.04438371 16.0625 23.125 C14.83660156 23.47820312 13.61070312 23.83140625 12.34765625 24.1953125 C9 25 9 25 5 25 C3.33333333 18.33333333 1.66666667 11.66666667 0 5 C-0.21019775 4.26233398 -0.42039551 3.52466797 -0.63696289 2.76464844 C-0.75676514 2.18231445 -0.87656738 1.59998047 -1 1 C-0.67 0.67 -0.34 0.34 0 0 Z " fill="#EF8025" transform="translate(128,169)"/>
<path d="M0 0 C6.93 0 13.86 0 21 0 C21 8.25 21 16.5 21 25 C16 24 16 24 14.50195312 22.54467773 C14.09912109 21.93052002 13.69628906 21.3163623 13.28125 20.68359375 C12.82363281 20.00103516 12.36601562 19.31847656 11.89453125 18.61523438 C11.43433594 17.89658203 10.97414063 17.17792969 10.5 16.4375 C9.80970703 15.40012695 9.80970703 15.40012695 9.10546875 14.34179688 C5.97877469 9.61652543 3.00400943 4.80641509 0 0 Z " fill="#E66148" transform="translate(321,206)"/>
<path d="M0 0 C0.84109099 3.24804287 1.67150656 6.49872304 2.5 9.75 C2.73847656 10.67039063 2.97695313 11.59078125 3.22265625 12.5390625 C3.44824219 13.42851562 3.67382812 14.31796875 3.90625 15.234375 C4.11572266 16.05131836 4.32519531 16.86826172 4.54101562 17.70996094 C5 20 5 20 5 24 C0.53636019 23.50228441 -1.48580581 22.02276894 -4.6875 18.9375 C-8.9938785 14.88367603 -13.4604223 11.21090917 -18.1640625 7.62890625 C-18.76992188 7.09136719 -19.37578125 6.55382812 -20 6 C-20 5.34 -20 4.68 -20 4 C-17.41806023 3.32749476 -14.83467929 2.66182099 -12.25 2 C-11.15558594 1.71382813 -11.15558594 1.71382813 -10.0390625 1.421875 C-6.55428354 0.53484036 -3.61876278 0 0 0 Z " fill="#E55B48" transform="translate(328,120)"/>
</svg>
